<!-- Generator: Adobe Illustrator 21.0.2, SVG Export Plug-In  -->
<svg version="1.1"
	 xmlns="http://www.w3.org/2000/svg" xmlns:xlink="http://www.w3.org/1999/xlink" xmlns:a="http://ns.adobe.com/AdobeSVGViewerExtensions/3.0/"
	 x="0px" y="0px" width="115.5px" height="122.8px" viewBox="0 0 115.5 122.8" style="enable-background:new 0 0 115.5 122.8;"
	 xml:space="preserve">
<defs>
</defs>
<style type="text/css">
	.track{fill:#fff;stroke:#fff;stroke-width:2;stroke-linecap:round;stroke-linejoin:round;stroke-miterlimit:10;}
</style>
<g>
	<path class="track" d="M56.1,110.2c-5.8-3.7-4.7-27.6-9.6-31.7C34,66.6,19.2,51.8,9.5,37.7c-6.5-9.5-2-14.4,6.8-6.1c0,0,31.2,27.8,34.1,30.4
		l1.1-33C51.5,5.3,64,5.3,64,29l1.1,33c2.8-2.5,34.1-30.4,34.1-30.4c8.8-8.3,13.3-3.4,6.8,6.1c-9.9,14.1-24.7,28.9-37.2,40.8
		c-4.8,4.1-3.8,28-9.6,31.7C58,110.9,57.1,110.8,56.1,110.2z"/>
	<path class="track" d="M60,9.8c-1.1,1.3-3.6,1.3-4.7,0c-1.3-3.1,1.6-8,2.4-9.8C58.5,1.8,61.1,6.6,60,9.8z"/>
	<path class="track" d="M111.1,28.5c-1.5,0.2-3.2-1.3-3.1-2.8c1-2.9,5.9-4.4,7.5-5.1C114.9,22.3,113.7,27.1,111.1,28.5z"/>
	<path class="track" d="M4.4,28.7c1.5,0.2,3.2-1.3,3.1-2.8c-1-2.9-5.9-4.4-7.5-5.1C0.6,22.5,1.8,27.3,4.4,28.7z"/>
	<path class="track" d="M60,113c-1.1-1.3-3.6-1.3-4.7,0c-1.3,3.1,1.6,8,2.4,9.8C58.5,120.9,61.1,116.1,60,113z"/>
</g>
</svg>