<!-- Generator: Adobe Illustrator 21.0.2, SVG Export Plug-In  -->
<svg version="1.1"
	 xmlns="http://www.w3.org/2000/svg" xmlns:xlink="http://www.w3.org/1999/xlink" xmlns:a="http://ns.adobe.com/AdobeSVGViewerExtensions/3.0/"
	 x="0px" y="0px" width="234.7px" height="143.9px" viewBox="0 0 234.7 143.9" style="enable-background:new 0 0 234.7 143.9;"
	 xml:space="preserve">
<defs>
</defs>
<style type="text/css">
	.track{fill:#fff;stroke:#fff;stroke-width:2;stroke-linecap:round;stroke-linejoin:round;stroke-miterlimit:10;}
</style>
<g>
	<g>
		<path class="track" d="M47.6,107.1c2-0.9,3.4-12.7,2.5-18.2c-0.9-5.5,0.5-5.9-0.9-11.4c-1.4-5.5-2.7-12.8-2.9-16.4c-0.2-3.6-2.7-11.8,0-13.2
			s6.2-0.2,6.2,1.8s2.1,18.2,2.9,18.7s1.4,6.8,1.2,9.5C56.6,80.5,58,92,59.4,94.5c1.4,2.5,3.2,9.1,7.1,5.5
			c3.9-3.6,10.7-11.4,13-12.3c2.3-0.9,8.6-6.1,8.6-6.1s4.3-6.1,6.6-6.1s4.3-0.5,4.1,1.1c-0.2,1.6-7,7.3-7,7.3s-6.6,7.8-8,10
			c-1.4,2.1-9.6,9.1-12.3,11.4c-2.7,2.3-5.2,6.4-6.4,9.8c-1.2,3.4-3.4,6.4-8.7,6.1c-5.4-0.4-9.8-7.8-10.9-8.2
			c-1.1-0.4-16.2-3.6-19.4-6.2c-3.2-2.7-16.9-8.2-18.7-9.1C5.5,96.8,7,93.7,7,93.7s12.1,1.6,13.9,2.7c1.8,1.1,8.2,4.1,11.6,5.4
			c3.4,1.2,8.6,4.5,9.5,4.5C42.8,106.2,45.7,108,47.6,107.1z"/>
		<path class="track" d="M45.4,44.7c0,0,1.7-4.6,1.9-8.4c1.7,3.9,5.2,8.2,3.6,7.8C47.7,43.1,45.4,44.7,45.4,44.7z"/>
		<path class="track" d="M97.5,71.7l5.1,3.1l1.6-8.5C104.2,66.4,99.4,71.2,97.5,71.7z"/>
		<path class="track" d="M4.5,92.5L0,90.7c0,0,1.4,5.4,2,5.4C2.5,96.1,4.1,95.5,4.5,92.5z"/>
		<path class="track" d="M58,130.5c0,0,3.5-0.3,5.5-1.4c2.1-1.1,1.4,14.8,1.4,14.8S58.3,134.2,58,130.5z"/>
	</g>
	<g>
		<path class="track" d="M187.1,70.8c-2-0.9-3.4-12.7-2.5-18.2c0.9-5.5-0.5-5.9,0.9-11.4s2.7-12.8,2.9-16.4s2.7-11.8,0-13.2s-6.2-0.2-6.2,1.8
			s-2.1,18.2-2.9,18.7s-1.4,6.8-1.2,9.5c0.2,2.7-1.2,14.1-2.7,16.6c-1.4,2.5-3.2,9.1-7.1,5.5c-3.9-3.6-10.7-11.4-13-12.3
			c-2.3-0.9-8.6-6.1-8.6-6.1s-4.3-6.1-6.6-6.1c-2.3,0-4.3-0.5-4.1,1.1c0.2,1.6,7,7.3,7,7.3s6.6,7.8,8,10c1.4,2.1,9.6,9.1,12.3,11.4
			c2.7,2.3,5.2,6.4,6.4,9.8c1.2,3.4,3.4,6.4,8.7,6.1c5.4-0.4,9.8-7.8,10.9-8.2c1.1-0.4,16.2-3.6,19.4-6.2c3.2-2.7,16.9-8.2,18.7-9.1
			c1.8-0.9,0.4-3.9,0.4-3.9s-12.1,1.6-13.9,2.7c-1.8,1.1-8.2,4.1-11.6,5.4c-3.4,1.2-8.6,4.5-9.5,4.5
			C191.9,69.9,189.1,71.7,187.1,70.8z"/>
		<path class="track" d="M189.3,8.4c0,0-1.7-4.6-1.9-8.4c-1.7,3.9-5.2,8.2-3.6,7.8C187.1,6.8,189.3,8.4,189.3,8.4z"/>
		<path class="track" d="M137.2,35.4l-5.1,3.1l-1.6-8.5C130.6,30.1,135.4,34.9,137.2,35.4z"/>
		<path class="track" d="M230.3,56.2l4.5-1.8c0,0-1.4,5.4-2,5.4S230.6,59.2,230.3,56.2z"/>
		<path class="track" d="M176.8,94.2c0,0-3.5-0.3-5.5-1.4c-2.1-1.1-1.4,14.8-1.4,14.8S176.4,97.9,176.8,94.2z"/>
	</g>
</g>
</svg>